<svg width="28" height="28" viewBox="0 0 28 28" fill="none" xmlns="http://www.w3.org/2000/svg">
<g clip-path="url(#clip0_304_248)">
<path d="M14 0.000488281C7.19955 0.000488281 1.69531 5.50386 1.69531 12.3052V17.3364C1.69531 19.598 3.53527 21.438 5.79688 21.438H8.25781V11.5942H5.79688C4.87424 11.5942 4.02194 11.9007 3.33594 12.4168V12.3052C3.33594 6.42501 8.11984 1.64111 14 1.64111C19.8802 1.64111 24.6641 6.42501 24.6641 12.3052V12.4168C23.9781 11.9007 23.1258 11.5942 22.2031 11.5942H19.7422V21.438H22.2031C22.6814 21.438 23.1404 21.3549 23.5675 21.2038C22.266 23.3115 19.9351 24.7192 17.2812 24.7192H16.3198C15.9812 23.7645 15.0694 23.0786 14 23.0786C12.643 23.0786 11.5391 24.1826 11.5391 25.5396C11.5391 26.8965 12.643 28.0005 14 28.0005C15.0694 28.0005 15.9812 27.3146 16.3198 26.3599H17.2812C22.2568 26.3599 26.3047 22.3119 26.3047 17.3364V12.3052C26.3047 5.50473 20.8013 0.000488281 14 0.000488281Z" fill="#3E3978"/>
</g>
<defs>
<clipPath id="clip0_304_248">
<rect width="28" height="28" fill="white" transform="translate(0 0.000488281)"/>
</clipPath>
</defs>
</svg>
