<svg width="29" height="29" viewBox="0 0 29 29" fill="none" xmlns="http://www.w3.org/2000/svg">
<path d="M26.164 11.7775H25.2198V11.7289H14.6703V16.4175H21.2948C20.3284 19.1469 17.7314 21.1061 14.6703 21.1061C10.7864 21.1061 7.63738 17.9571 7.63738 14.0732C7.63738 10.1892 10.7864 7.04021 14.6703 7.04021C16.4632 7.04021 18.0942 7.71654 19.3361 8.82131L22.6516 5.50585C20.5581 3.55479 17.7578 2.35156 14.6703 2.35156C8.19708 2.35156 2.94873 7.59991 2.94873 14.0732C2.94873 20.5464 8.19708 25.7948 14.6703 25.7948C21.1436 25.7948 26.392 20.5464 26.392 14.0732C26.392 13.2872 26.3111 12.5201 26.164 11.7775Z" fill="#FFC107"/>
<path d="M4.30017 8.61735L8.15131 11.4417C9.19336 8.86175 11.717 7.04021 14.6703 7.04021C16.4631 7.04021 18.0942 7.71654 19.3361 8.82131L22.6515 5.50585C20.558 3.55479 17.7578 2.35156 14.6703 2.35156C10.168 2.35156 6.26354 4.89339 4.30017 8.61735Z" fill="#FF3D00"/>
<path d="M14.6703 25.7948C17.698 25.7948 20.4491 24.6361 22.5291 22.7519L18.9012 19.682C17.6849 20.607 16.1985 21.1074 14.6703 21.1062C11.6215 21.1062 9.03282 19.1621 8.05759 16.4492L4.23517 19.3942C6.1751 23.1903 10.1147 25.7948 14.6703 25.7948Z" fill="#4CAF50"/>
<path d="M26.1639 11.7775H25.2197V11.7289H14.6703V16.4175H21.2948C20.8325 17.7165 19.9997 18.8516 18.8994 19.6826L18.9012 19.6814L22.529 22.7513C22.2723 22.9846 26.3919 19.934 26.3919 14.0732C26.3919 13.2873 26.311 12.5201 26.1639 11.7775Z" fill="#1976D2"/>
</svg>
