<svg width="41" height="41" viewBox="0 0 41 41" fill="none" xmlns="http://www.w3.org/2000/svg">
<path fill-rule="evenodd" clip-rule="evenodd" d="M0.0101318 0H2.52664V37.875H40.2743V40.4H0.0101318V0ZM25.1752 8.8375C25.1752 8.50266 25.3078 8.18154 25.5438 7.94478C25.7797 7.70801 26.0998 7.575 26.4335 7.575H36.4995C36.8332 7.575 37.1533 7.70801 37.3892 7.94478C37.6252 8.18154 37.7578 8.50266 37.7578 8.8375V18.9375C37.7578 19.2723 37.6252 19.5935 37.3892 19.8302C37.1533 20.067 36.8332 20.2 36.4995 20.2C36.1658 20.2 35.8458 20.067 35.6098 19.8302C35.3738 19.5935 35.2413 19.2723 35.2413 18.9375V12.3725L26.1491 23.5254C26.0378 23.6617 25.8993 23.7732 25.7425 23.8525C25.5857 23.9319 25.414 23.9774 25.2386 23.9862C25.0632 23.995 24.8879 23.9669 24.724 23.9036C24.5601 23.8403 24.4112 23.7433 24.2869 23.6188L17.7767 17.0867L8.57633 29.7798C8.37507 30.0366 8.08243 30.2051 7.75993 30.25C7.43743 30.2948 7.11017 30.2124 6.84691 30.0202C6.58366 29.828 6.40491 29.5409 6.34824 29.2192C6.29156 28.8975 6.36137 28.5663 6.54299 28.2951L16.609 14.4076C16.7159 14.26 16.8533 14.1373 17.012 14.0481C17.1706 13.9588 17.3467 13.9052 17.528 13.8908C17.7093 13.8764 17.8915 13.9016 18.0622 13.9646C18.2329 14.0277 18.3879 14.1272 18.5165 14.2561L25.0821 20.8464L33.8446 10.1H26.4335C26.0998 10.1 25.7797 9.96699 25.5438 9.73022C25.3078 9.49346 25.1752 9.17234 25.1752 8.8375Z" fill="#37C61F"/>
</svg>
