<svg width="28" height="24" viewBox="0 0 28 24" fill="none" xmlns="http://www.w3.org/2000/svg">
<path d="M23.958 12.9477H21.7926C22.0134 13.552 22.1339 14.2041 22.1339 14.8838V23.0678C22.1339 23.3512 22.0846 23.6232 21.9949 23.8762H25.5748C26.912 23.8762 27.9999 22.7883 27.9999 21.451V16.9896C28 14.7609 26.1868 12.9477 23.958 12.9477ZM5.86605 14.8839C5.86605 14.2041 5.98664 13.552 6.20736 12.9477H4.04195C1.81322 12.9477 0 14.761 0 16.9897V21.4512C0 22.7884 1.0879 23.8763 2.42517 23.8763H6.00513C5.91299 23.6167 5.86595 23.3433 5.86605 23.0679V14.8839ZM16.4752 10.8419H11.5248C9.29605 10.8419 7.48284 12.6552 7.48284 14.8839V23.0679C7.48284 23.5143 7.84476 23.8763 8.29123 23.8763H19.7088C20.1552 23.8763 20.5172 23.5143 20.5172 23.0679V14.8839C20.5172 12.6552 18.7039 10.8419 16.4752 10.8419ZM14 0.124557C11.3197 0.124557 9.13905 2.30517 9.13905 4.98557C9.13905 6.80365 10.1425 8.3915 11.6244 9.22516C12.3273 9.62055 13.1377 9.84652 14 9.84652C14.8623 9.84652 15.6727 9.62055 16.3756 9.22516C17.8575 8.3915 18.861 6.8036 18.861 4.98557C18.861 2.30522 16.6803 0.124557 14 0.124557ZM5.46427 4.65536C3.4597 4.65536 1.82891 6.28614 1.82891 8.29071C1.82891 10.2953 3.4597 11.9261 5.46427 11.9261C5.95687 11.9265 6.44436 11.8262 6.8968 11.6314C7.65729 11.304 8.28434 10.7244 8.67234 9.99844C8.95342 9.47315 9.10021 8.88648 9.09962 8.29071C9.09962 6.2862 7.46884 4.65536 5.46427 4.65536ZM22.5357 4.65536C20.5312 4.65536 18.9004 6.28614 18.9004 8.29071C18.8998 8.88648 19.0466 9.47315 19.3277 9.99844C19.7157 10.7245 20.3427 11.3041 21.1032 11.6314C21.5556 11.8262 22.0431 11.9265 22.5357 11.9261C24.5403 11.9261 26.1711 10.2953 26.1711 8.29071C26.1711 6.28614 24.5403 4.65536 22.5357 4.65536Z" fill="#3E3978"/>
</svg>
