<svg width="28" height="28" viewBox="0 0 28 28" fill="none" xmlns="http://www.w3.org/2000/svg">
<path fill-rule="evenodd" clip-rule="evenodd" d="M14 2.78513L28 15.7082V24.7694C28 25.6263 27.6313 26.448 26.9749 27.0539C26.3185 27.6598 25.4283 28.0002 24.5 28.0002H3.5C2.57174 28.0002 1.6815 27.6598 1.02513 27.0539C0.368749 26.448 0 25.6263 0 24.7694V15.7082L14 2.78513ZM25.6667 1.07713V8.61559L21 4.3079V1.07713C21 0.791511 21.1229 0.517592 21.3417 0.31563C21.5605 0.113667 21.8572 0.000205994 22.1667 0.000205994H24.5C24.8094 0.000205994 25.1062 0.113667 25.325 0.31563C25.5438 0.517592 25.6667 0.791511 25.6667 1.07713Z" fill="#3E3978"/>
</svg>
