<svg width="276" height="61" viewBox="0 0 276 61" fill="none" xmlns="http://www.w3.org/2000/svg">
<rect x="156" y="5" width="120" height="50" rx="10.0905" fill="#766CE8" fill-opacity="0.8"/>
<ellipse cx="249.442" cy="29.7752" rx="21.4422" ry="21.0907" fill="white"/>
<path d="M9.4043 22.1956V27.927H18.6472V33.2547H9.4043V39.4704H19.858V45H2.50243V16.666H19.858V22.1956H9.4043ZM33.6624 39.6722H42.7034V45H26.7605V16.666H33.6624V39.6722ZM55.319 22.1956V27.927H64.5619V33.2547H55.319V39.4704H65.7727V45H48.4171V16.666H65.7727V22.1956H55.319ZM71.5047 30.7926C71.5047 27.9942 72.1101 25.5052 73.321 23.3257C74.5319 21.1193 76.2136 19.4106 78.3662 18.1998C80.5458 16.962 83.0078 16.3431 85.7524 16.3431C89.1159 16.3431 91.9951 17.2311 94.3899 19.007C96.7847 20.7829 98.3857 23.2046 99.1929 26.2721H91.6049C91.0398 25.0882 90.2326 24.1868 89.1832 23.5679C88.1607 22.949 86.9902 22.6396 85.6717 22.6396C83.546 22.6396 81.8239 23.3795 80.5054 24.8595C79.1869 26.3394 78.5277 28.3171 78.5277 30.7926C78.5277 33.2682 79.1869 35.2459 80.5054 36.7258C81.8239 38.2058 83.546 38.9457 85.6717 38.9457C86.9902 38.9457 88.1607 38.6363 89.1832 38.0174C90.2326 37.3985 91.0398 36.4971 91.6049 35.3132H99.1929C98.3857 38.3807 96.7847 40.8024 94.3899 42.5783C91.9951 44.3273 89.1159 45.2018 85.7524 45.2018C83.0078 45.2018 80.5458 44.5964 78.3662 43.3855C76.2136 42.1478 74.5319 40.4391 73.321 38.2596C72.1101 36.08 71.5047 33.5911 71.5047 30.7926ZM126.224 16.666V22.1956H118.717V45H111.815V22.1956H104.308V16.666H126.224ZM146.559 45L140.666 34.3041H139.011V45H132.11V16.666H143.693C145.927 16.666 147.824 17.0562 149.384 17.8365C150.972 18.6168 152.156 19.6931 152.936 21.0654C153.717 22.4108 154.107 23.9177 154.107 25.586C154.107 27.4695 153.569 29.1513 152.492 30.6312C151.443 32.1111 149.882 33.1605 147.81 33.7794L154.349 45H146.559ZM139.011 29.4203H143.29C144.554 29.4203 145.496 29.1109 146.115 28.492C146.761 27.8731 147.084 26.9986 147.084 25.8685C147.084 24.7922 146.761 23.9446 146.115 23.3257C145.496 22.7068 144.554 22.3974 143.29 22.3974H139.011V29.4203ZM174.261 45.2825C171.597 45.2825 169.149 44.6637 166.915 43.4259C164.709 42.1881 162.946 40.466 161.628 38.2596C160.336 36.0262 159.691 33.5238 159.691 30.7523C159.691 27.9808 160.336 25.4918 161.628 23.2853C162.946 21.0789 164.709 19.3568 166.915 18.119C169.149 16.8813 171.597 16.2624 174.261 16.2624C176.925 16.2624 179.36 16.8813 181.567 18.119C183.8 19.3568 185.549 21.0789 186.814 23.2853C188.105 25.4918 188.751 27.9808 188.751 30.7523C188.751 33.5238 188.105 36.0262 186.814 38.2596C185.522 40.466 183.773 42.1881 181.567 43.4259C179.36 44.6637 176.925 45.2825 174.261 45.2825ZM174.261 38.9861C176.521 38.9861 178.324 38.2327 179.67 36.7258C181.042 35.219 181.728 33.2278 181.728 30.7523C181.728 28.2499 181.042 26.2587 179.67 24.7787C178.324 23.2719 176.521 22.5185 174.261 22.5185C171.974 22.5185 170.144 23.2584 168.772 24.7384C167.427 26.2183 166.754 28.2229 166.754 30.7523C166.754 33.2547 167.427 35.2594 168.772 36.7662C170.144 38.2461 171.974 38.9861 174.261 38.9861ZM220.36 45H213.458L201.914 27.5233V45H195.012V16.666H201.914L213.458 34.2234V16.666H220.36V45Z" fill="#23222D"/>
</svg>
