<svg width="28" height="28" viewBox="0 0 28 28" fill="none" xmlns="http://www.w3.org/2000/svg">
<path fill-rule="evenodd" clip-rule="evenodd" d="M3.29947 0.893327C3.60567 0.587568 3.97334 0.350379 4.37813 0.197478C4.78292 0.0445763 5.21558 -0.0205459 5.64744 0.00642668C6.0793 0.0333993 6.5005 0.151851 6.88312 0.353932C7.26574 0.556012 7.60105 0.837108 7.86683 1.17859L11.008 5.21427C11.5837 5.95456 11.7867 6.91885 11.5592 7.82889L10.602 11.6616C10.5525 11.8601 10.5552 12.068 10.6098 12.2652C10.6643 12.4624 10.769 12.6421 10.9135 12.7869L15.2131 17.0868C15.3581 17.2316 15.5381 17.3365 15.7355 17.391C15.933 17.4456 16.1413 17.4482 16.3401 17.3983L20.1707 16.441C20.6198 16.3288 21.0885 16.32 21.5414 16.4155C21.9943 16.511 22.4196 16.7083 22.7851 16.9923L26.8205 20.132C28.2712 21.2608 28.4042 23.4046 27.1057 24.7014L25.2963 26.511C24.0013 27.8061 22.0659 28.3748 20.2617 27.7396C15.6439 26.1147 11.4512 23.4708 7.99457 20.0042C4.52844 16.5478 1.88483 12.3554 0.259816 7.73789C-0.373664 5.93531 0.195068 3.99797 1.49003 2.70291L3.29947 0.893327Z" fill="#3E3978"/>
</svg>
