<svg width="28" height="28" viewBox="0 0 28 28" fill="none" xmlns="http://www.w3.org/2000/svg">
<path d="M1.16667 0.000473022C0.857247 0.000473022 0.560501 0.147973 0.341709 0.410524C0.122917 0.673075 0 1.02917 0 1.40047C0 1.77178 0.122917 2.12787 0.341709 2.39042C0.560501 2.65297 0.857247 2.80047 1.16667 2.80047H26.8333C27.1428 2.80047 27.4395 2.65297 27.6583 2.39042C27.8771 2.12787 28 1.77178 28 1.40047C28 1.02917 27.8771 0.673075 27.6583 0.410524C27.4395 0.147973 27.1428 0.000473022 26.8333 0.000473022H1.16667ZM12.8333 8.40047C12.5239 8.40047 12.2272 8.54797 12.0084 8.81052C11.7896 9.07307 11.6667 9.42917 11.6667 9.80047C11.6667 10.1718 11.7896 10.5279 12.0084 10.7904C12.2272 11.053 12.5239 11.2005 12.8333 11.2005H26.8333C27.1428 11.2005 27.4395 11.053 27.6583 10.7904C27.8771 10.5279 28 10.1718 28 9.80047C28 9.42917 27.8771 9.07307 27.6583 8.81052C27.4395 8.54797 27.1428 8.40047 26.8333 8.40047H12.8333ZM12.8333 16.8005C12.5239 16.8005 12.2272 16.948 12.0084 17.2105C11.7896 17.4731 11.6667 17.8292 11.6667 18.2005C11.6667 18.5718 11.7896 18.9279 12.0084 19.1904C12.2272 19.453 12.5239 19.6005 12.8333 19.6005H26.8333C27.1428 19.6005 27.4395 19.453 27.6583 19.1904C27.8771 18.9279 28 18.5718 28 18.2005C28 17.8292 27.8771 17.4731 27.6583 17.2105C27.4395 16.948 27.1428 16.8005 26.8333 16.8005H12.8333ZM1.16667 25.2005C0.857247 25.2005 0.560501 25.348 0.341709 25.6105C0.122917 25.8731 0 26.2292 0 26.6005C0 26.9718 0.122917 27.3279 0.341709 27.5904C0.560501 27.853 0.857247 28.0005 1.16667 28.0005H26.8333C27.1428 28.0005 27.4395 27.853 27.6583 27.5904C27.8771 27.3279 28 26.9718 28 26.6005C28 26.2292 27.8771 25.8731 27.6583 25.6105C27.4395 25.348 27.1428 25.2005 26.8333 25.2005H1.16667ZM3.01 10.1561C3.27133 9.93767 3.61667 9.68007 4.046 9.38607L3.556 8.40047C3.27133 8.60767 2.92133 8.87647 2.50133 9.20407C2.08133 9.53167 1.68467 9.93207 1.31133 10.4025C0.940972 10.8713 0.628264 11.4012 0.382667 11.9761C0.126 12.5557 0 13.2025 0 13.9137C0 14.9217 0.168 15.7337 0.506333 16.3581C0.842333 16.9713 1.40467 17.2765 2.18633 17.2765C2.688 17.2765 3.08 17.0805 3.36233 16.6857C3.63706 16.3335 3.79333 15.8716 3.801 15.3893C3.801 14.7453 3.63767 14.2581 3.30867 13.9305C2.989 13.5917 2.548 13.4209 1.98333 13.4209H1.32533C1.38133 12.8525 1.477 12.3849 1.61233 12.0265C1.76004 11.645 1.95865 11.2951 2.20033 10.9905C2.44113 10.6752 2.71212 10.3951 3.00767 10.1561H3.01ZM8.06633 10.1561C8.33 9.93767 8.67767 9.68007 9.10467 9.38607L8.61467 8.40047C8.33 8.60767 7.98 8.87647 7.56 9.20407C7.14 9.53167 6.74333 9.93207 6.37 10.4025C5.99964 10.8713 5.68693 11.4012 5.44133 11.9761C5.18467 12.5557 5.05867 13.2025 5.05867 13.9137C5.05867 14.9217 5.22667 15.7337 5.565 16.3581C5.901 16.9713 6.46333 17.2765 7.245 17.2765C7.74667 17.2765 8.13867 17.0805 8.421 16.6857C8.69572 16.3335 8.852 15.8716 8.85967 15.3893C8.85967 14.7453 8.69633 14.2581 8.36733 13.9305C8.04767 13.5917 7.60667 13.4209 7.042 13.4209H6.384C6.41968 12.9481 6.51243 12.484 6.65933 12.0433C6.79467 11.6793 6.99533 11.3321 7.259 10.9933C7.49953 10.676 7.77053 10.394 8.06633 10.1533V10.1561Z" fill="#3E3978"/>
</svg>
