<svg width="41" height="41" viewBox="0 0 41 41" fill="none" xmlns="http://www.w3.org/2000/svg">
<path fill-rule="evenodd" clip-rule="evenodd" d="M0.0101318 0.163513L0.0101318 2.68851L37.7578 2.68851L37.7578 40.5635H40.2743L40.2743 0.163513L0.0101318 0.163513ZM8.81791 25.4135C8.4842 25.4135 8.16416 25.5465 7.92819 25.7833C7.69223 26.0201 7.55966 26.3412 7.55966 26.676L7.55966 36.776C7.55966 37.1108 7.69223 37.432 7.92819 37.6687C8.16416 37.9055 8.4842 38.0385 8.81791 38.0385L18.884 38.0385C19.2177 38.0385 19.5377 37.9055 19.7737 37.6687C20.0096 37.432 20.1422 37.1108 20.1422 36.776C20.1422 36.4412 20.0096 36.1201 19.7737 35.8833C19.5377 35.6465 19.2177 35.5135 18.884 35.5135L12.341 35.5135L23.4564 26.3907C23.5923 26.279 23.7034 26.14 23.7825 25.9827C23.8615 25.8254 23.9069 25.6531 23.9157 25.4771C23.9245 25.3011 23.8964 25.1252 23.8334 24.9608C23.7703 24.7963 23.6736 24.6469 23.5496 24.5222L17.0394 17.99L29.6898 8.75861C29.9458 8.55667 30.1137 8.26305 30.1584 7.93946C30.2031 7.61587 30.121 7.2875 29.9294 7.02336C29.7378 6.75922 29.4517 6.57987 29.1311 6.523C28.8105 6.46614 28.4804 6.53618 28.2101 6.71841L14.3693 16.8184C14.2222 16.9256 14.0999 17.0636 14.011 17.2227C13.922 17.3819 13.8685 17.5586 13.8542 17.7405C13.8398 17.9224 13.865 18.1053 13.9278 18.2765C13.9907 18.4477 14.0898 18.6033 14.2183 18.7324L20.7864 25.3201L10.0762 34.1121L10.0762 26.676C10.0762 26.3412 9.9436 26.0201 9.70763 25.7833C9.47167 25.5465 9.15162 25.4135 8.81791 25.4135Z" fill="#B43C3C"/>
</svg>
