<svg width="28" height="28" viewBox="0 0 28 28" fill="none" xmlns="http://www.w3.org/2000/svg">
<path d="M10.4997 0.875473C10.4997 0.643413 10.5919 0.420857 10.756 0.256765C10.9201 0.0926739 11.1427 0.000488281 11.3748 0.000488281L16.6252 0.000488281C16.8573 0.000488281 17.0799 0.0926739 17.244 0.256765C17.4081 0.420857 17.5003 0.643413 17.5003 0.875473C17.5003 1.10753 17.4081 1.33009 17.244 1.49418C17.0799 1.65827 16.8573 1.75046 16.6252 1.75046H15.7502V3.62293C18.1335 3.96693 20.3627 5.00552 22.1592 6.60896C23.9556 8.2124 25.2398 10.3096 25.8511 12.6385C26.4624 14.9675 26.3739 17.4249 25.5965 19.7038C24.8191 21.9827 23.3874 23.982 21.4802 25.452L22.5321 26.5055C22.6964 26.6696 22.7888 26.8922 22.7889 27.1244C22.7891 27.3566 22.697 27.5793 22.5329 27.7436C22.3688 27.9079 22.1462 28.0003 21.914 28.0005C21.6818 28.0007 21.459 27.9086 21.2947 27.7445L19.9891 26.439C18.1601 27.4655 16.0974 28.0031 14 28C11.9026 28.0031 9.83989 27.4655 8.01094 26.439L6.70532 27.7445C6.62396 27.8257 6.52739 27.8902 6.42113 27.9341C6.31487 27.978 6.201 28.0006 6.08602 28.0005C5.97104 28.0004 5.85719 27.9777 5.751 27.9336C5.6448 27.8895 5.54832 27.825 5.46708 27.7436C5.38583 27.6623 5.3214 27.5657 5.27748 27.4595C5.23355 27.3532 5.21098 27.2394 5.21107 27.1244C5.21123 26.8922 5.30363 26.6696 5.46795 26.5055L6.52155 25.452C4.61437 23.9821 3.18263 21.9829 2.40517 19.7042C1.62772 17.4254 1.53902 14.9681 2.15015 12.6392C2.76129 10.3103 4.04516 8.2131 5.8414 6.60955C7.63763 5.006 9.86659 3.9672 12.2498 3.62293V1.75046H11.3748C11.1427 1.75046 10.9201 1.65827 10.756 1.49418C10.5919 1.33009 10.4997 1.10753 10.4997 0.875473ZM14.8751 9.62532C14.8751 9.39326 14.7829 9.1707 14.6188 9.00661C14.4547 8.84252 14.2321 8.75034 14 8.75034C13.7679 8.75034 13.5453 8.84252 13.3812 9.00661C13.2171 9.1707 13.1249 9.39326 13.1249 9.62532V15.5087L10.6239 19.6736C10.5044 19.8728 10.4689 20.1112 10.5252 20.3365C10.5815 20.5618 10.725 20.7555 10.9241 20.875C11.1232 20.9945 11.3617 21.03 11.587 20.9738C11.8123 20.9175 12.0061 20.774 12.1256 20.5749L14.7508 16.2C14.8322 16.0641 14.8751 15.9086 14.8751 15.7502V9.62532ZM1.50383 9.42758C1.05099 9.03372 0.684035 8.55092 0.425779 8.0092C0.167523 7.46748 0.0234917 6.87843 0.00264126 6.27868C-0.0182092 5.67892 0.0845674 5.08129 0.30458 4.52295C0.524592 3.96461 0.857135 3.4575 1.28153 3.03315C1.70592 2.60881 2.21309 2.2763 2.77149 2.05631C3.3299 1.83633 3.92759 1.73356 4.52741 1.75441C5.12723 1.77526 5.71635 1.91927 6.25813 2.1775C6.79991 2.43573 7.28276 2.80264 7.67666 3.25543C5.01632 4.60596 2.85451 6.76753 1.50383 9.42758ZM20.3233 3.25543C20.7172 2.80264 21.2001 2.43573 21.7419 2.1775C22.2837 1.91927 22.8728 1.77526 23.4726 1.75441C24.0724 1.73356 24.6701 1.83633 25.2285 2.05631C25.7869 2.2763 26.2941 2.60881 26.7185 3.03315C27.1429 3.4575 27.4754 3.96461 27.6954 4.52295C27.9154 5.08129 28.0182 5.67892 27.9974 6.27868C27.9765 6.87843 27.8325 7.46748 27.5742 8.0092C27.316 8.55092 26.949 9.03372 26.4962 9.42758C25.1455 6.76753 22.9837 4.60596 20.3233 3.25543Z" fill="#3E3978"/>
</svg>
